<svg width="21" height="22" viewBox="0 0 21 22" fill="none" xmlns="http://www.w3.org/2000/svg">
<path d="M1.3125 5H3.3125H19.3125" stroke="white" stroke-width="1.5" stroke-linecap="round" stroke-linejoin="round"/>
<path d="M17.3135 5V19C17.3135 19.5304 17.1028 20.0391 16.7277 20.4142C16.3526 20.7893 15.8439 21 15.3135 21H5.31348C4.78304 21 4.27434 20.7893 3.89926 20.4142C3.52419 20.0391 3.31348 19.5304 3.31348 19V5M6.31348 5V3C6.31348 2.46957 6.52419 1.96086 6.89926 1.58579C7.27433 1.21071 7.78304 1 8.31348 1H12.3135C12.8439 1 13.3526 1.21071 13.7277 1.58579C14.1028 1.96086 14.3135 2.46957 14.3135 3V5" stroke="white" stroke-width="1.5" stroke-linecap="round" stroke-linejoin="round"/>
<path d="M8.31152 10V16" stroke="white" stroke-width="1.5" stroke-linecap="round" stroke-linejoin="round"/>
<path d="M12.3135 10V16" stroke="white" stroke-width="1.5" stroke-linecap="round" stroke-linejoin="round"/>
</svg>
