<svg width="24" height="20" viewBox="0 0 24 20" fill="none" xmlns="http://www.w3.org/2000/svg">
<path d="M11.9998 16.8917C15.5298 16.8917 18.8198 15.1583 21.1098 12.1583C22.0098 10.9833 22.0098 9.00834 21.1098 7.83334C18.8198 4.83334 15.5298 3.10001 11.9998 3.10001C8.46984 3.10001 5.17984 4.83334 2.88984 7.83334C1.98984 9.00834 1.98984 10.9833 2.88984 12.1583C5.17984 15.1583 8.46984 16.8917 11.9998 16.8917Z" fill="white" fill-opacity="0.6"/>
<path d="M15.5799 10C15.5799 11.65 13.9799 12.9833 11.9999 12.9833C10.0199 12.9833 8.41992 11.65 8.41992 10C8.41992 8.35 10.0199 7.01666 11.9999 7.01666C13.9799 7.01666 15.5799 8.35 15.5799 10Z" fill="black" stroke="black" stroke-linecap="round" stroke-linejoin="round"/>
</svg>
