<svg width="60" height="60" viewBox="0 0 60 60" fill="none" xmlns="http://www.w3.org/2000/svg">
<path fill-rule="evenodd" clip-rule="evenodd" d="M26.9543 34.2115V25.0723C30.2348 26.599 32.7755 28.0737 35.7805 29.6638C33.302 31.0232 30.2348 32.5484 26.9543 34.2115ZM45.2365 20.5269C44.6706 19.7896 43.7062 19.2156 42.6794 19.0256C39.6613 18.4588 20.8329 18.4571 17.8165 19.0256C16.9931 19.1782 16.2599 19.5472 15.63 20.1206C12.9761 22.5567 13.8077 35.6212 14.4474 37.7374C14.7164 38.6534 15.0641 39.3141 15.5021 39.7477C16.0663 40.321 16.8389 40.7158 17.7263 40.8928C20.2112 41.4012 33.0134 41.6854 42.6269 40.9691C43.5126 40.8165 44.2966 40.409 44.915 39.8113C47.3688 37.3849 47.2015 23.5868 45.2365 20.5269Z" fill="#D9D9D9"/>
<circle cx="30" cy="30" r="28.5" stroke="#D9D9D9" stroke-width="3"/>
</svg>
