<svg width="60" height="60" viewBox="0 0 60 60" fill="none" xmlns="http://www.w3.org/2000/svg">
<path d="M30.7006 17.4214C32.0749 17.4001 33.4413 17.4127 34.8061 17.4001C34.8888 19.0075 35.4668 20.6448 36.6434 21.7813C37.8177 22.946 39.4786 23.4792 41.0946 23.6595V27.8878C39.5801 27.8382 38.0586 27.5232 36.6844 26.8711C36.0859 26.6002 35.5282 26.2513 34.9825 25.8946C34.9754 28.9628 34.9951 32.0272 34.9628 35.0828C34.8809 36.5508 34.3966 38.0117 33.5429 39.2214C32.1694 41.2351 29.7855 42.5479 27.337 42.5889C25.8352 42.6747 24.3349 42.2652 23.0552 41.5107C20.9343 40.2601 19.4419 37.9707 19.2245 35.5136C19.1993 34.9883 19.1907 34.4638 19.2119 33.9511C19.401 31.9531 20.3893 30.0418 21.9235 28.7416C23.6624 27.2271 26.0982 26.5057 28.3789 26.9325C28.4002 28.4879 28.338 30.0418 28.338 31.5972C27.2961 31.2601 26.0785 31.3546 25.1682 31.987C24.5034 32.4178 23.9986 33.0777 23.7356 33.8243C23.5183 34.3567 23.5805 34.9482 23.5931 35.5136C23.8427 37.2367 25.4997 38.685 27.2685 38.5283C28.4412 38.5157 29.565 37.8353 30.1761 36.839C30.3738 36.4901 30.5951 36.1334 30.6069 35.7231C30.7101 33.8448 30.6691 31.9744 30.6817 30.0961C30.6904 25.8631 30.6691 21.6419 30.7014 17.4222L30.7006 17.4214Z" fill="#D9D9D9"/>
<circle cx="30" cy="30" r="28.5" stroke="#D9D9D9" stroke-width="3"/>
</svg>
