<svg width="60" height="60" viewBox="0 0 60 60" fill="none" xmlns="http://www.w3.org/2000/svg">
<path fill-rule="evenodd" clip-rule="evenodd" d="M24.2781 42.6001C36.1301 42.6001 42.6129 32.9036 42.6129 24.4959C42.6129 24.2199 42.6129 23.9459 42.594 23.673C43.8551 22.7736 44.9434 21.6569 45.8087 20.3791C44.634 20.894 43.3855 21.2316 42.1088 21.3804C43.4531 20.5849 44.4597 19.3352 44.9418 17.8605C43.6761 18.6017 42.2925 19.1248 40.8493 19.4055C38.4088 16.8438 34.3273 16.7197 31.7313 19.1294C30.0588 20.6832 29.3474 22.9998 29.8672 25.2096C24.6864 24.9521 19.8589 22.5362 16.5861 18.5619C14.8759 21.4694 15.7506 25.1875 18.5821 27.0545C17.5566 27.025 16.5531 26.7524 15.6564 26.2593V26.3401C15.6579 29.3685 17.8204 31.9762 20.8262 32.5763C19.8777 32.8322 18.882 32.8693 17.9178 32.6847C18.7611 35.2775 21.1812 37.0533 23.9373 37.1045C21.6554 38.8754 18.8365 39.8369 15.9343 39.8339C15.4224 39.8323 14.9104 39.8028 14.4 39.7423C17.3477 41.6094 20.776 42.6002 24.2781 42.5955" fill="#D9D9D9"/>
<circle cx="30" cy="30" r="28.5" stroke="#D9D9D9" stroke-width="3"/>
</svg>
