<svg width="60" height="60" viewBox="0 0 60 60" fill="none" xmlns="http://www.w3.org/2000/svg">
<path d="M41.7359 19.4937C39.6326 18.5247 37.3771 17.8107 35.0189 17.4019C34.9759 17.394 34.933 17.4137 34.9109 17.4531C34.6208 17.9712 34.2995 18.6469 34.0745 19.1781C31.538 18.7968 29.0146 18.7968 26.5302 19.1781C26.3051 18.6351 25.9721 17.9712 25.6808 17.4531C25.6586 17.415 25.6157 17.3953 25.5728 17.4019C23.2159 17.8095 20.9604 18.5233 18.8558 19.4937C18.8375 19.5015 18.8219 19.5147 18.8116 19.5318C14.5334 25.9491 13.3615 32.2087 13.9364 38.3907C13.939 38.4209 13.9559 38.4498 13.9793 38.4682C16.8019 40.5495 19.5361 41.8129 22.2195 42.6504C22.2625 42.6636 22.3079 42.6478 22.3353 42.6123C22.97 41.742 23.5359 40.8243 24.021 39.8592C24.0497 39.8027 24.0223 39.7356 23.9638 39.7133C23.0663 39.3714 22.2117 38.9547 21.3896 38.4814C21.3246 38.4432 21.3194 38.3499 21.3792 38.3052C21.5522 38.175 21.7253 38.0396 21.8905 37.9029C21.9203 37.8779 21.962 37.8726 21.9971 37.8884C27.3977 40.3641 33.2446 40.3641 38.5816 37.8884C38.6167 37.8713 38.6584 37.8766 38.6896 37.9015C38.8547 38.0383 39.0278 38.175 39.2021 38.3052C39.2619 38.3499 39.2579 38.4432 39.193 38.4814C38.3709 38.9638 37.5163 39.3714 36.6175 39.712C36.559 39.7343 36.5329 39.8027 36.5615 39.8592C37.0571 40.8229 37.6229 41.7406 38.246 42.611C38.272 42.6478 38.3188 42.6636 38.3618 42.6504C41.0582 41.8129 43.7924 40.5495 46.615 38.4682C46.6397 38.4498 46.6553 38.4222 46.6579 38.392C47.346 31.2449 45.5054 25.0366 41.7788 19.5331C41.7697 19.5147 41.7541 19.5015 41.7359 19.4937ZM24.8275 34.6264C23.2016 34.6264 21.8618 33.1277 21.8618 31.287C21.8618 29.4463 23.1756 27.9475 24.8275 27.9475C26.4925 27.9475 27.8192 29.4595 27.7932 31.287C27.7932 33.1277 26.4794 34.6264 24.8275 34.6264ZM35.7928 34.6264C34.1669 34.6264 32.8271 33.1277 32.8271 31.287C32.8271 29.4463 34.1408 27.9475 35.7928 27.9475C37.4578 27.9475 38.7845 29.4595 38.7585 31.287C38.7585 33.1277 37.4578 34.6264 35.7928 34.6264Z" fill="#D9D9D9"/>
<circle cx="30" cy="30" r="28.5" stroke="#D9D9D9" stroke-width="3"/>
</svg>
