<svg width="75" height="75" viewBox="0 0 75 75" fill="none" xmlns="http://www.w3.org/2000/svg">
<path d="M8.06201 59.4062L7.99951 59.4688C7.15576 57.625 6.62451 55.5312 6.40576 53.2188C6.62451 55.5 7.21826 57.5625 8.06201 59.4062Z" fill="#8F8F8F" fill-opacity="0.5"/>
<path d="M28.1255 32.4375C32.2331 32.4375 35.563 29.1076 35.563 25C35.563 20.8924 32.2331 17.5625 28.1255 17.5625C24.0179 17.5625 20.688 20.8924 20.688 25C20.688 29.1076 24.0179 32.4375 28.1255 32.4375Z" fill="#8F8F8F" fill-opacity="0.5"/>
<path d="M50.5938 6.25H24.4062C13.0312 6.25 6.25 13.0312 6.25 24.4062V50.5938C6.25 54 6.84375 56.9688 8 59.4688C10.6875 65.4063 16.4375 68.75 24.4062 68.75H50.5938C61.9688 68.75 68.75 61.9688 68.75 50.5938V43.4375V24.4062C68.75 13.0312 61.9688 6.25 50.5938 6.25ZM63.6563 39.0625C61.2188 36.9688 57.2812 36.9688 54.8437 39.0625L41.8438 50.2188C39.4062 52.3125 35.4687 52.3125 33.0312 50.2188L31.9687 49.3438C29.75 47.4062 26.2188 47.2188 23.7188 48.9062L12.0312 56.75C11.3437 55 10.9375 52.9688 10.9375 50.5938V24.4062C10.9375 15.5938 15.5938 10.9375 24.4062 10.9375H50.5938C59.4062 10.9375 64.0625 15.5938 64.0625 24.4062V39.4062L63.6563 39.0625Z" fill="#8F8F8F" fill-opacity="0.5"/>
</svg>
