<svg width="160" height="160" viewBox="0 0 160 160" fill="none" xmlns="http://www.w3.org/2000/svg">
<circle cx="80" cy="80" r="79.25" fill="white" stroke="#D9D9D9" stroke-width="1.5" stroke-linecap="round" stroke-dasharray="10 10"/>
<path d="M80.0008 49.1669C71.9225 49.1669 65.355 55.7344 65.355 63.8127C65.355 71.7369 71.5525 78.1502 79.6308 78.4277C79.8775 78.3969 80.1241 78.3969 80.3091 78.4277C80.3708 78.4277 80.4016 78.4277 80.4633 78.4277C80.4941 78.4277 80.4941 78.4277 80.525 78.4277C88.4183 78.1502 94.6158 71.7369 94.6466 63.8127C94.6466 55.7344 88.0791 49.1669 80.0008 49.1669Z" fill="#D9D9D9"/>
<path d="M95.662 86.6291C87.0595 80.8941 73.0303 80.8941 64.3662 86.6291C60.4503 89.25 58.292 92.7958 58.292 96.5883C58.292 100.381 60.4503 103.896 64.3353 106.486C68.652 109.384 74.3253 110.833 79.9987 110.833C85.672 110.833 91.3453 109.384 95.662 106.486C99.547 103.865 101.705 100.35 101.705 96.5266C101.674 92.7341 99.547 89.2191 95.662 86.6291Z" fill="#D9D9D9"/>
</svg>
